<svg width="40.000000" height="35.000000" viewBox="0 0 40 35" fill="none" xmlns="http://www.w3.org/2000/svg" xmlns:xlink="http://www.w3.org/1999/xlink">
	<desc>
			Created with Pixso.
	</desc>
	<defs/>
	<path id="Vector" d="M22.93 -0.07L7.17 -0.07C6.45 -0.07 5.87 0.51 5.87 1.23C5.87 1.94 6.45 2.52 7.17 2.52L13.9 2.52C12.48 3.41 11.2 4.5 10.1 5.76L1.29 5.76C0.58 5.76 0 6.34 0 7.06C0 7.78 0.58 8.36 1.29 8.36L8.22 8.36C6.73 10.89 5.87 13.84 5.87 16.99C5.87 20.66 7.03 24.06 9.01 26.84L5.33 26.84C4.61 26.84 4.03 27.42 4.03 28.14C4.03 28.86 4.61 29.44 5.33 29.44L11.27 29.44C12.08 30.2 12.96 30.88 13.9 31.47L1.42 31.47C0.71 31.47 0.13 32.05 0.13 32.76C0.13 33.48 0.71 34.06 1.42 34.06L22.93 34.06C32.34 34.06 39.99 26.4 39.99 16.99C39.99 7.59 32.34 -0.07 22.93 -0.07ZM22.93 31.47C14.95 31.47 8.46 24.97 8.46 17C8.46 9.02 14.95 2.52 22.93 2.52C30.91 2.52 37.4 9.02 37.4 16.99C37.4 24.97 30.91 31.47 22.93 31.47Z" fill="#D10014" fill-opacity="1.000000" fill-rule="nonzero"/>
	<path id="Vector" d="M22.93 6.41C17.1 6.41 12.35 11.16 12.35 17C12.35 20.48 14.04 23.57 16.64 25.5C16.66 25.52 16.68 25.54 16.71 25.56C16.74 25.58 16.77 25.6 16.8 25.62C18.53 26.85 20.65 27.58 22.93 27.58C25.22 27.58 27.33 26.85 29.07 25.62C29.1 25.6 29.13 25.58 29.15 25.56C29.18 25.54 29.2 25.52 29.23 25.5C31.83 23.57 33.52 20.48 33.52 17C33.52 11.16 28.77 6.41 22.93 6.41ZM24.23 9.11C26.76 9.52 28.89 11.13 30.03 13.33L26.68 14.42C26.09 13.57 25.23 12.93 24.23 12.64L24.23 9.11L24.23 9.11ZM24.89 17C24.89 18.07 24.01 18.95 22.93 18.95C21.85 18.95 20.98 18.07 20.98 17C20.98 15.92 21.85 15.04 22.93 15.04C24.01 15.04 24.89 15.92 24.89 17ZM21.64 9.11L21.64 12.64C20.63 12.93 19.77 13.57 19.19 14.42L15.83 13.33C16.97 11.13 19.11 9.52 21.64 9.11ZM17.25 22.61C15.82 21.17 14.94 19.18 14.94 17C14.94 16.59 14.97 16.18 15.03 15.79L18.39 16.88C18.39 16.92 18.38 16.96 18.38 17C18.38 18.03 18.73 18.99 19.32 19.76L17.25 22.61ZM22.93 24.99C21.64 24.99 20.42 24.68 19.35 24.14L21.42 21.28C21.89 21.45 22.4 21.54 22.93 21.54C23.46 21.54 23.97 21.45 24.45 21.28L26.52 24.14C25.44 24.68 24.22 24.99 22.93 24.99ZM28.61 22.61L26.54 19.76C27.13 18.99 27.48 18.03 27.48 17C27.48 16.96 27.48 16.92 27.48 16.88L30.84 15.79C30.9 16.19 30.93 16.59 30.93 17C30.93 19.18 30.04 21.17 28.61 22.61Z" fill="#D10014" fill-opacity="1.000000" fill-rule="nonzero"/>
</svg>
